<svg width="20" height="23" viewBox="0 0 20 23" fill="none" xmlns="http://www.w3.org/2000/svg">
<path fill-rule="evenodd" clip-rule="evenodd" d="M3 1.5C2.17157 1.5 1.5 2.17157 1.5 3V14C1.5 14.8284 2.17157 15.5 3 15.5H7.5V9C7.5 7.61929 8.61929 6.5 10 6.5H11.5V3C11.5 2.17157 10.8284 1.5 10 1.5H3ZM12.5 6.5V3C12.5 1.61929 11.3807 0.5 10 0.5H3C1.61929 0.5 0.5 1.61929 0.5 3V14C0.5 15.3807 1.61929 16.5 3 16.5H7.5V20C7.5 21.3807 8.61929 22.5 10 22.5H17C18.3807 22.5 19.5 21.3807 19.5 20V9C19.5 7.61929 18.3807 6.5 17 6.5H12.5ZM10 7.5C9.17157 7.5 8.5 8.17157 8.5 9V20C8.5 20.8284 9.17157 21.5 10 21.5H17C17.8284 21.5 18.5 20.8284 18.5 20V9C18.5 8.17157 17.8284 7.5 17 7.5H10Z" fill="#D4B160"/>
</svg>
